<svg xmlns="http://www.w3.org/2000/svg" width="952.303" height="766.957" viewBox="0 0 952.303 766.957">
  <path id="Union_3" data-name="Union 3" d="M3828.971,2224.547c145.859-35.231,283.984-99.216,413.886-195.105-37.568-48.5-75.134-97-112.238-144.921,103.206-101.8,312.556-189.368,520.5-237.21l43.023,186.43a1060.355,1060.355,0,0,0-212.525,69.117c-81.83,36.513-158.39,84.871-237.279,127.971q57.092,83.112,114.066,166.331c-9.521,3.526-20.1,5.525-28.094,11.049q-212.112,147.228-454.67,206.06Zm529.488-27.964c9.4-10.227,19.277-21.158,30.444-28.8,107.437-73,223.691-123.306,348.291-148.226l44.08,190.779q-162.568,32.442-306.562,134.238C4434.865,2293.559,4395.839,2244.543,4358.459,2196.583Z" transform="translate(-3828.971 -1647.311)" fill="#efb100" opacity="0.8"/>
</svg>
